<?xml version="1.0" encoding="UTF-8"?>
<svg id="Layer_2" xmlns="http://www.w3.org/2000/svg" xmlns:xlink="http://www.w3.org/1999/xlink" viewBox="0 0 246.5 276.27">
  <defs>
    <style>
      .cls-1 {
        fill: url(#linear-gradient-5);
      }

      .cls-2 {
        fill: url(#linear-gradient-6);
      }

      .cls-3 {
        fill: url(#linear-gradient-4);
      }

      .cls-4 {
        fill: url(#linear-gradient-3);
      }

      .cls-5 {
        fill: url(#linear-gradient-2);
      }

      .cls-6 {
        fill: url(#linear-gradient);
      }

      .cls-7 {
        fill: #323031;
      }
    </style>
    <linearGradient id="linear-gradient" x1="237.85" y1="21.84" x2="244.76" y2="33.81" gradientUnits="userSpaceOnUse">
      <stop offset="0" stop-color="#53c6e5"/>
      <stop offset=".31" stop-color="#35b4da"/>
    </linearGradient>
    <linearGradient id="linear-gradient-2" x1="178.25" y1="11.44" x2="184.46" y2="22.21" xlink:href="#linear-gradient"/>
    <linearGradient id="linear-gradient-3" x1="228.34" y1="-1.69" x2="242.32" y2="22.53" xlink:href="#linear-gradient"/>
    <linearGradient id="linear-gradient-4" x1="23" y1="33.66" x2="123.16" y2="207.14" xlink:href="#linear-gradient"/>
    <linearGradient id="linear-gradient-5" x1="171.17" y1="19.83" x2="199.83" y2="69.46" xlink:href="#linear-gradient"/>
    <linearGradient id="linear-gradient-6" x1="176.42" y1="65.38" x2="220.24" y2="141.29" xlink:href="#linear-gradient"/>
  </defs>
  <g id="Layer_1-2" data-name="Layer_1">
    <g>
      <g>
        <g>
          <rect class="cls-6" x="236.12" y="22.64" width="10.38" height="10.38" rx=".48" ry=".48"/>
          <rect class="cls-5" x="176.65" y="12.12" width="9.41" height="9.41" rx=".57" ry=".57"/>
          <rect class="cls-4" x="224.91" width="20.84" height="20.84" rx=".69" ry=".69"/>
        </g>
        <g>
          <path class="cls-3" d="M192.45,160.85L111.47,43.9c-3.86-5.57-10.2-8.89-16.97-8.89H20.66l.21.19c-1.59.44-2.93,1.73-3.18,3.62L1.73,160.2c-.59,4.45,2.99,8.35,7.48,8.14h37.39c3.95-.17,7.22-3.14,7.78-7.05l11.73-85.76,66.92,85.86c3.61,4.63,9.16,7.34,15.04,7.34h40.25c4.05,0,6.44-4.55,4.13-7.88Z"/>
          <g>
            <path class="cls-1" d="M220.24,18.97h-22.81c-3.92,0-7.1,3.18-7.1,7.1v1.96h-32.19c-2.33,0-4.27,1.83-4.46,4.21l-2.92,37.28c-.21,2.62,1.77,4.89,4.33,4.96h34.07c3.69.1,6.79-2.82,7-6.6l1.17-20.39h18.1c3.11,0,5.63-2.52,5.63-5.63v-22.06c0-.46-.37-.83-.83-.83Z"/>
            <path class="cls-2" d="M198.78,78.34c2.61-2.43,2.04-22.92,3.48-25.26.84-1.37,6.53-.92,6.53-.92,0,0-12.05,103.14-13.26,103.39-1.42.29-44.78-62.35-45.28-66.82-.23-2.06-.25-3.96-.2-5.41.05-1.56,1.41-4.21,2.97-4.21,9.81.01,43.41,1.4,45.74-.78Z"/>
          </g>
        </g>
      </g>
      <g>
        <path class="cls-7" d="M1.42,223.24v-36.03l-.71-5.67h10.21l24.12,25.25,2.77,3.83h.78v-29.08h9.36v41.71h-9.01l-24.69-25.68-2.77-3.33h-.71v29.01H1.42Z"/>
        <path class="cls-7" d="M69.35,223.24c-3.31,0-5.91-.47-7.8-1.42-1.89-.94-3.23-2.36-4.01-4.25-.78-1.89-1.17-4.23-1.17-7.02v-16.39c0-2.74.38-5.05,1.14-6.92.75-1.87,2.08-3.29,3.97-4.26,1.89-.97,4.51-1.45,7.87-1.45h20.71c3.31,0,5.9.49,7.77,1.45,1.87.97,3.19,2.39,3.97,4.26.78,1.87,1.17,4.17,1.17,6.92v16.39c0,4.16-.92,7.32-2.77,9.47s-5.22,3.23-10.14,3.23h-20.71ZM71.41,216.43h16.67c1.75,0,3.11-.45,4.08-1.35s1.45-2.13,1.45-3.69v-18.09c0-1.37-.5-2.54-1.49-3.51-.99-.97-2.34-1.45-4.04-1.45h-16.67c-1.7,0-3.07.45-4.11,1.35-1.04.9-1.56,2.1-1.56,3.62v18.09c0,1.61.51,2.85,1.53,3.72,1.02.87,2.4,1.31,4.15,1.31Z"/>
        <path class="cls-7" d="M127.02,223.24l-19.79-41.64h9.93l13.34,28.73,1.91,5.11h.64l1.84-5.11,13.48-28.73h9.65l-1.13,4.25-18.51,37.38h-11.35Z"/>
        <path class="cls-7" d="M153.36,223.24l20.78-41.71h13.97l20.71,41.71h-10.92l-4.19-9.01h-25.39l-4.61,9.01h-10.36ZM170.88,207.28h20.22l-9.72-19.36h-.71l-9.79,19.36Z"/>
        <path class="cls-7" d="M18.32,276.27l-.07-34.61H0v-6.74h45.9v6.74h-18.32v34.61h-9.27Z"/>
        <path class="cls-7" d="M52.92,276.27v-41.27h43.66v6.74h-34.39v9.69h26.25v6.95h-26.25v11.16h34.68l2.81,5.97c0,.19-.63.36-1.9.53-1.26.17-3.44.25-6.53.25h-38.33Z"/>
        <path class="cls-7" d="M118.83,276.27c-3.32,0-5.92-.47-7.79-1.41-1.87-.93-3.18-2.34-3.93-4.21-.75-1.87-1.13-4.19-1.13-6.95v-15.65c0-4.49,1.01-7.8,3.02-9.93,2.01-2.13,5.29-3.19,9.83-3.19h21.13c3.23,0,5.7.17,7.41.53,1.71.35,2.56.71,2.56,1.09l-1.41,5.83c-.79-.14-3.15-.29-7.05-.46-3.91-.16-9.58-.25-17.02-.25h-3.58c-3.74,0-5.62,1.66-5.62,4.98v17.9c0,1.59.41,2.82,1.23,3.68.82.87,2.28,1.3,4.39,1.3h2.88c7.77,0,13.79-.08,18.07-.25,4.28-.17,6.94-.34,7.97-.53l2.88,4.63c0,.24-.39.59-1.16,1.05s-2.19.89-4.25,1.26c-2.06.38-5.03.56-8.91.56h-19.51Z"/>
        <path class="cls-7" d="M159.69,276.27v-41.27h9.27v17.13h27.52v-17.13h9.27v41.27h-9.27v-17.41h-27.52v17.41h-9.27Z"/>
      </g>
    </g>
  </g>
</svg>